<?xml version="1.0" standalone="no"?>
<!DOCTYPE svg PUBLIC "-//W3C//DTD SVG 20010904//EN"
 "http://www.w3.org/TR/2001/REC-SVG-20010904/DTD/svg10.dtd">
<svg version="1.0" xmlns="http://www.w3.org/2000/svg"
 width="1024.000000pt" height="1024.000000pt" viewBox="0 0 1024.000000 1024.000000"
 preserveAspectRatio="xMidYMid meet">

<g transform="translate(0.000000,1024.000000) scale(0.100000,-0.100000)"
fill="#000000" stroke="none">
<path d="M5118 9633 c-2 -4 -1 -84 3 -178 22 -475 28 -693 29 -928 0 -171 4
-266 11 -280 9 -18 9 -20 -2 -9 -49 46 -165 -58 -171 -154 0 -16 -4 39 -8 121
-10 207 -41 289 -137 362 -33 25 -44 28 -117 28 -45 0 -110 -7 -146 -15 -36
-8 -68 -13 -72 -12 -5 1 -8 -3 -8 -8 0 -6 24 -10 53 -10 107 0 219 -53 272
-130 15 -22 31 -37 36 -34 5 3 6 -3 2 -12 -4 -10 -2 -15 3 -11 5 3 10 -2 11
-11 0 -9 14 -51 30 -93 17 -42 35 -98 42 -125 7 -26 35 -107 63 -178 43 -113
67 -191 92 -308 10 -45 23 -32 35 35 12 63 97 323 111 342 4 6 13 35 20 65 51
233 130 353 281 429 51 26 74 31 130 31 37 0 70 3 73 8 2 4 -10 15 -27 25
l-32 17 24 -20 c13 -11 21 -20 19 -20 -2 0 -44 9 -94 20 -113 25 -158 25 -214
-1 -117 -53 -174 -163 -189 -363 -6 -75 -7 -78 -19 -52 -6 15 -8 24 -2 21 6
-4 10 11 10 38 0 133 50 257 134 334 31 29 60 52 64 52 4 -1 19 -1 35 0 34 1
35 19 2 27 -36 9 -137 123 -178 202 -49 94 -120 318 -131 417 -4 28 9 -7 27
-80 66 -255 160 -431 266 -500 33 -21 189 -70 197 -62 2 2 -15 14 -39 27 -43
24 -67 44 -67 55 0 3 -22 33 -49 68 -90 116 -184 286 -247 449 -35 91 -41 113
-23 88 9 -12 10 -12 5 3 -3 11 -9 30 -12 43 -3 13 -9 22 -13 20 -3 -2 -7 11
-8 30 -1 18 -6 41 -12 51 -9 15 -10 13 -6 -12 5 -28 5 -29 -5 -6 -6 14 -8 31
-5 39 4 12 -29 159 -39 169 -2 2 -6 1 -8 -4z m36 -128 c5 -22 4 -26 -4 -15 -5
8 -10 24 -10 34 0 26 6 18 14 -19z m-7 -147 c-2 -18 -4 -4 -4 32 0 36 2 50 4
33 2 -18 2 -48 0 -65z m-13 -1472 c-4 -87 -10 -170 -14 -185 -10 -33 -13 330
-3 378 l7 36 8 -35 c5 -19 5 -106 2 -194z"/>
<path d="M5081 9554 c0 -11 3 -14 6 -6 3 7 2 16 -1 19 -3 4 -6 -2 -5 -13z"/>
<path d="M5071 9514 c0 -11 3 -14 6 -6 3 7 2 16 -1 19 -3 4 -6 -2 -5 -13z"/>
<path d="M5061 9474 c0 -11 3 -14 6 -6 3 7 2 16 -1 19 -3 4 -6 -2 -5 -13z"/>
<path d="M5037 9398 c-9 -29 -15 -54 -13 -56 2 -2 12 20 21 48 9 28 15 53 13
55 -2 3 -12 -19 -21 -47z"/>
<path d="M5230 9275 c0 -5 5 -17 10 -25 5 -8 10 -10 10 -5 0 6 -5 17 -10 25
-5 8 -10 11 -10 5z"/>
<path d="M4976 9235 c-9 -26 -7 -32 5 -12 6 10 9 21 6 23 -2 3 -7 -2 -11 -11z"/>
<path d="M5250 9225 c0 -5 5 -17 10 -25 5 -8 10 -10 10 -5 0 6 -5 17 -10 25
-5 8 -10 11 -10 5z"/>
<path d="M4946 9165 c-9 -26 -7 -32 5 -12 6 10 9 21 6 23 -2 3 -7 -2 -11 -11z"/>
<path d="M5281 9155 c0 -5 13 -35 29 -65 16 -30 29 -50 29 -45 0 6 -13 35 -29
65 -16 30 -29 51 -29 45z"/>
<path d="M5041 9124 c0 -11 3 -14 6 -6 3 7 2 16 -1 19 -3 4 -6 -2 -5 -13z"/>
<path d="M5022 9058 c-6 -23 -9 -44 -7 -46 2 -2 9 15 15 38 6 23 9 44 7 46 -2
3 -9 -14 -15 -38z"/>
<path d="M5363 8985 c14 -27 33 -59 42 -70 9 -11 1 7 -16 40 -40 74 -60 98
-26 30z"/>
<path d="M4840 8950 c-6 -11 -8 -20 -6 -20 3 0 10 9 16 20 6 11 8 20 6 20 -3
0 -10 -9 -16 -20z"/>
<path d="M4952 8888 c-26 -53 -63 -108 -104 -153 -53 -58 -56 -64 -22 -36 23
18 55 51 72 74 35 49 105 187 99 194 -3 2 -23 -33 -45 -79z"/>
<path d="M5426 8878 c26 -44 134 -173 134 -160 0 5 -10 17 -21 28 -12 10 -41
47 -66 82 -25 34 -47 62 -49 62 -3 0 -2 -6 2 -12z"/>
<path d="M4739 8793 c-13 -16 -12 -17 4 -4 16 13 21 21 13 21 -2 0 -10 -8 -17
-17z"/>
<path d="M4650 8693 l-55 -58 58 55 c31 30 57 56 57 57 0 8 -10 -1 -60 -54z"/>
<path d="M5610 8665 c13 -14 26 -25 28 -25 3 0 -5 11 -18 25 -13 14 -26 25
-28 25 -3 0 5 -11 18 -25z"/>
<path d="M4569 8623 c-13 -16 -12 -17 4 -4 16 13 21 21 13 21 -2 0 -10 -8 -17
-17z"/>
<path d="M5665 8620 c10 -11 20 -20 23 -20 3 0 -3 9 -13 20 -10 11 -20 20 -23
20 -3 0 3 -9 13 -20z"/>
<path d="M5071 8535 c-1 -11 -4 -36 -6 -55 -8 -85 -28 -128 -37 -82 -2 9 -4
-23 -5 -73 -2 -85 -2 -88 12 -58 7 18 17 54 20 80 4 26 11 60 16 74 6 14 8 50
6 80 -2 30 -4 45 -6 34z"/>
<path d="M4461 8441 c-7 -5 -12 -11 -11 -15 1 -4 -49 -56 -111 -114 -226 -215
-467 -494 -588 -682 -46 -71 -75 -104 -114 -131 -109 -74 -247 -274 -352 -509
-127 -285 -223 -462 -396 -736 -100 -158 -243 -358 -317 -444 l-31 -35 -33 33
c-27 27 -29 32 -14 32 11 0 27 -7 36 -15 14 -13 20 -8 60 43 196 249 496 747
595 986 44 107 42 147 -12 207 -30 33 -42 39 -75 39 -21 0 -53 -7 -69 -16 -17
-8 -38 -13 -47 -9 -10 3 0 -11 20 -32 42 -43 58 -78 59 -131 1 -34 2 -35 10
-12 6 19 7 14 4 -20 -6 -54 -103 -257 -183 -385 -86 -137 -143 -216 -152 -210
-4 3 -14 -3 -21 -13 -13 -15 -12 -16 4 -3 9 7 17 10 17 6 0 -11 -144 -207
-169 -229 -29 -26 -27 -5 3 23 26 25 90 111 82 111 -3 0 -24 -25 -46 -55 -23
-31 -75 -90 -115 -132 -41 -42 -72 -80 -69 -85 3 -4 -2 -5 -10 -2 -9 3 -16 3
-16 0 0 -11 93 -128 106 -133 8 -3 14 -9 14 -14 0 -6 10 -23 21 -38 12 -16 19
-34 15 -39 -7 -11 19 -35 33 -30 12 4 43 49 244 348 171 254 244 370 505 800
242 400 298 470 373 470 l41 0 -21 36 c-24 40 -27 55 -8 49 7 -3 34 35 68 98
85 155 266 427 449 672 90 121 170 226 177 233 26 26 66 83 62 87 -3 2 -10 0
-18 -4z m-754 -1126 l21 -30 -62 4 -61 4 42 11 c34 9 41 14 33 26 -5 8 -9 51
-8 95 l1 80 6 -80 c5 -59 12 -89 28 -110z m-112 -35 c-3 -5 -12 -10 -18 -10
-7 0 -6 4 3 10 19 12 23 12 15 0z m-1090 -1310 c-27 -28 -54 -50 -59 -50 -6 0
14 25 44 55 29 30 56 52 59 50 3 -3 -17 -28 -44 -55z"/>
<path d="M5750 8441 c0 -6 5 -11 11 -11 6 0 30 -14 53 -32 31 -24 36 -26 19
-7 -27 30 -83 64 -83 50z"/>
<path d="M5583 8424 c-3 -8 -2 -23 3 -34 14 -30 196 -240 204 -235 4 3 16 -5
26 -18 16 -18 16 -19 2 -8 -10 7 -18 10 -18 7 0 -9 231 -277 256 -296 10 -8
-11 19 -47 60 -36 41 -69 82 -74 90 -8 14 43 -41 113 -121 17 -20 29 -39 25
-43 -10 -9 68 -86 80 -79 6 3 7 1 4 -4 -4 -6 23 -42 59 -79 36 -38 62 -62 58
-54 -32 61 -521 677 -620 783 -48 50 -61 56 -71 31z m308 -376 c46 -57 27 -46
-22 15 -24 28 -36 46 -26 38 10 -8 31 -31 48 -53z m240 -270 c15 -28 5 -21
-21 15 -15 20 -17 27 -6 18 9 -8 22 -23 27 -33z"/>
<path d="M4350 8360 c-40 -33 -100 -85 -134 -114 -128 -114 -304 -263 -369
-314 -37 -30 -67 -56 -67 -59 0 -7 103 76 271 219 158 135 356 305 374 320 5
4 6 8 3 8 -3 0 -39 -27 -78 -60z"/>
<path d="M4535 8347 c-68 -71 -129 -144 -250 -302 -33 -43 -87 -112 -120 -154
-70 -88 -210 -291 -170 -246 15 17 79 88 143 159 114 125 140 158 111 141 -8
-5 -5 1 5 13 21 25 36 31 16 7 -7 -8 -10 -15 -7 -15 14 0 147 162 141 172 -4
6 -3 8 4 4 11 -7 79 70 75 85 -2 5 1 8 6 7 9 -3 120 117 149 160 13 20 13 25
1 33 -25 15 -32 11 -104 -64z m-335 -460 c0 -2 -10 -12 -22 -23 l-23 -19 19
23 c18 21 26 27 26 19z m-50 -60 c0 -2 -10 -12 -22 -23 l-23 -19 19 23 c18 21
26 27 26 19z"/>
<path d="M5806 8365 c27 -33 77 -98 109 -145 33 -47 85 -119 116 -160 31 -41
79 -110 108 -152 28 -43 57 -77 63 -75 7 1 12 -7 13 -18 0 -11 6 -19 13 -17 8
1 11 -2 7 -7 -7 -13 54 -113 65 -106 5 3 12 0 16 -6 4 -8 3 -9 -4 -5 -19 12
-14 -1 29 -74 23 -38 46 -67 50 -64 5 3 6 -3 2 -12 -5 -13 -3 -15 8 -9 8 4 11
5 7 1 -4 -5 6 -33 22 -65 63 -127 63 -127 47 -159 l-14 -30 41 -5 c35 -5 51
-16 109 -78 37 -39 91 -105 119 -145 28 -40 56 -70 61 -67 6 3 7 1 3 -5 -6
-10 59 -122 71 -122 2 0 1 5 -3 12 -4 7 -3 8 4 4 6 -4 9 -13 6 -20 -3 -7 5
-24 16 -37 12 -13 18 -18 14 -10 -4 9 -3 12 4 7 6 -4 9 -12 6 -19 -2 -7 3 -21
11 -32 15 -19 16 -19 5 5 -10 23 -10 24 4 7 8 -11 12 -26 9 -35 -4 -9 -2 -13
4 -9 6 4 10 -1 9 -11 0 -9 5 -16 12 -14 8 1 11 -2 7 -8 -9 -14 14 -52 27 -44
7 4 8 3 4 -4 -8 -13 17 -56 26 -46 3 3 5 -3 5 -13 -1 -10 3 -17 10 -16 8 2 10
-4 6 -14 -4 -10 -2 -14 4 -10 6 4 10 -1 9 -11 0 -9 5 -16 12 -14 8 1 11 -2 7
-8 -9 -14 14 -52 27 -44 7 4 8 3 4 -4 -9 -15 18 -55 29 -44 5 4 5 2 1 -5 -7
-13 15 -49 220 -358 182 -275 242 -363 254 -370 6 -4 23 8 38 25 15 18 62 69
105 113 l79 80 -78 76 c-43 42 -61 56 -39 31 36 -40 34 -39 -18 10 -53 50 -79
90 -39 59 14 -12 14 -10 -2 8 -10 12 -23 21 -28 20 -13 -3 -119 134 -112 144
5 9 -84 134 -96 134 -5 0 -12 4 -17 9 -5 5 -2 6 6 1 9 -5 12 -3 9 6 -3 8 -10
14 -15 14 -6 0 -15 4 -20 9 -5 5 -2 6 6 1 9 -5 12 -3 9 6 -3 8 -10 14 -15 14
-6 0 -15 4 -20 9 -5 5 -2 6 6 1 9 -5 12 -3 9 6 -3 8 -10 13 -16 12 -6 -2 -9 3
-6 11 3 8 0 17 -7 22 -8 5 -10 3 -5 -7 4 -8 0 -5 -9 6 -26 32 -41 65 -15 35
15 -18 19 -19 11 -5 -12 25 -45 66 -36 45 4 -8 -3 -4 -14 10 -11 14 -21 29
-21 34 0 6 7 1 15 -10 14 -17 14 -15 0 14 -8 17 -18 32 -21 32 -3 0 -2 -5 2
-12 4 -7 3 -8 -5 -4 -6 4 -9 11 -6 16 7 12 -26 80 -37 74 -4 -3 -5 3 -1 12 5
13 3 15 -7 9 -8 -5 -11 -4 -6 3 8 13 -14 63 -25 57 -4 -3 -5 5 -1 17 3 11 1
19 -4 16 -5 -4 -10 20 -12 52 -4 71 11 105 68 152 l41 34 -123 29 c-79 18
-149 42 -197 66 -42 22 -66 30 -57 20 8 -9 43 -30 76 -46 47 -23 57 -31 48
-42 -9 -11 -14 -11 -29 3 -11 10 -19 14 -19 9 0 -4 8 -15 18 -24 11 -9 21 -23
24 -31 6 -15 10 -7 24 38 2 6 17 12 34 12 l32 0 -32 -26 c-72 -61 -75 -117
-13 -261 118 -275 446 -804 591 -952 l62 -64 26 24 c22 20 25 21 16 4 -24 -43
-51 -70 -60 -60 -123 133 -296 378 -459 650 -101 168 -124 213 -282 538 -61
126 -136 268 -168 315 -57 87 -169 209 -213 232 l-22 12 7 -64 c5 -34 9 -78
10 -95 3 -42 18 -59 59 -67 18 -3 41 -13 52 -22 18 -14 18 -15 -6 -7 -14 4
-59 8 -101 8 -74 0 -75 0 -57 20 26 27 31 56 26 138 -4 54 -13 87 -35 132 -37
73 -163 250 -264 371 -85 103 -361 387 -434 448 l-50 41 51 -60z m484 -645 c6
-11 8 -20 6 -20 -3 0 -10 9 -16 20 -6 11 -8 20 -6 20 3 0 10 -9 16 -20z m81
-135 l10 -20 -16 20 c-9 11 -21 29 -26 40 l-10 20 16 -20 c9 -11 21 -29 26
-40z m459 -666 c15 -28 5 -23 -15 7 -9 15 -12 23 -6 20 6 -4 16 -16 21 -27z
m650 -615 c18 -26 29 -45 24 -42 -5 4 -25 28 -44 54 -18 26 -29 45 -24 42 5
-4 25 -28 44 -54z m321 -381 c13 -16 12 -17 -3 -4 -10 7 -18 15 -18 17 0 8 8
3 21 -13z"/>
<path d="M5860 8366 c0 -3 39 -38 86 -78 103 -87 134 -111 134 -105 0 3 -39
38 -87 78 -113 96 -133 112 -133 105z"/>
<path d="M6145 8125 c61 -57 195 -168 195 -162 0 5 -69 64 -200 172 -42 35
-42 34 5 -10z"/>
<path d="M6370 7935 c13 -14 26 -25 28 -25 3 0 -5 11 -18 25 -13 14 -26 25
-28 25 -3 0 5 -11 18 -25z"/>
<path d="M6425 7890 c10 -11 20 -20 23 -20 3 0 -3 9 -13 20 -10 11 -20 20 -23
20 -3 0 3 -9 13 -20z"/>
<path d="M3730 7839 c-35 -31 -35 -31 -3 -9 18 11 35 25 38 30 10 16 2 11 -35
-21z"/>
<path d="M6460 7866 c0 -2 8 -10 18 -17 15 -13 16 -12 3 4 -13 16 -21 21 -21
13z"/>
<path d="M6510 7827 c0 -6 120 -95 165 -122 44 -27 19 -5 -45 40 -30 21 -70
49 -87 63 -18 13 -33 22 -33 19z"/>
<path d="M3607 7755 c-20 -14 -37 -28 -37 -31 0 -2 18 8 40 22 35 23 47 34 37
34 -1 0 -19 -11 -40 -25z"/>
<path d="M6730 7676 c0 -3 9 -10 20 -16 11 -6 20 -8 20 -6 0 3 -9 10 -20 16
-11 6 -20 8 -20 6z"/>
<path d="M6732 7601 c-35 -58 -37 -96 -6 -149 55 -95 127 -174 202 -224 74
-48 137 -70 75 -25 -35 24 -71 73 -92 125 -7 17 -17 32 -21 32 -4 0 -13 18
-20 39 -7 22 -19 42 -27 45 -8 3 -11 10 -8 16 3 5 2 10 -3 10 -5 0 -9 6 -9 13
0 17 -43 87 -54 87 -4 0 -6 6 -3 14 3 8 1 23 -4 32 -9 16 -12 14 -30 -15z"/>
<path d="M6780 7625 c0 -5 5 -17 10 -25 5 -8 10 -10 10 -5 0 6 -5 17 -10 25
-5 8 -10 11 -10 5z"/>
<path d="M3474 7596 c10 -15 24 -47 32 -70 l14 -41 -4 44 c-3 32 -12 51 -32
70 l-27 26 17 -29z"/>
<path d="M6800 7576 c0 -29 189 -296 246 -346 15 -14 5 2 -23 35 -69 83 -154
199 -191 265 -18 30 -32 51 -32 46z"/>
<path d="M3380 7500 c-6 -11 -8 -20 -6 -20 3 0 10 9 16 20 6 11 8 20 6 20 -3
0 -10 -9 -16 -20z"/>
<path d="M3458 7412 c-54 -75 -109 -137 -153 -171 l-30 -22 34 18 c51 27 215
222 200 237 -2 3 -25 -26 -51 -62z"/>
<path d="M5078 7433 c23 -2 59 -2 80 0 20 2 1 4 -43 4 -44 0 -61 -2 -37 -4z"/>
<path d="M5208 7433 c7 -3 16 -2 19 1 4 3 -2 6 -13 5 -11 0 -14 -3 -6 -6z"/>
<path d="M4888 7423 c23 -2 59 -2 80 0 20 2 1 4 -43 4 -44 0 -61 -2 -37 -4z"/>
<path d="M5283 7423 c15 -2 39 -2 55 0 15 2 2 4 -28 4 -30 0 -43 -2 -27 -4z"/>
<path d="M3310 7390 c-12 -16 -19 -30 -16 -30 2 0 14 14 26 30 12 17 19 30 16
30 -2 0 -14 -13 -26 -30z"/>
<path d="M4783 7413 c9 -2 25 -2 35 0 9 3 1 5 -18 5 -19 0 -27 -2 -17 -5z"/>
<path d="M5403 7413 c15 -2 37 -2 50 0 12 2 0 4 -28 4 -27 0 -38 -2 -22 -4z"/>
<path d="M4718 7403 c6 -2 18 -2 25 0 6 3 1 5 -13 5 -14 0 -19 -2 -12 -5z"/>
<path d="M5498 7403 c12 -2 30 -2 40 0 9 3 -1 5 -23 4 -22 0 -30 -2 -17 -4z"/>
<path d="M4668 7393 c7 -3 16 -2 19 1 4 3 -2 6 -13 5 -11 0 -14 -3 -6 -6z"/>
<path d="M5578 7393 c12 -2 32 -2 45 0 12 2 2 4 -23 4 -25 0 -35 -2 -22 -4z"/>
<path d="M6360 7392 c0 -5 -21 -24 -47 -42 -75 -54 -253 -231 -276 -275 -20
-36 -22 -54 -20 -170 0 -71 13 -223 27 -336 15 -113 27 -258 29 -322 1 -64 5
-117 9 -117 3 0 9 39 13 88 27 364 85 744 136 895 28 84 92 207 128 245 35 38
37 42 16 42 -8 0 -15 -4 -15 -8z m-193 -494 c-3 -8 -6 -5 -6 6 -1 11 2 17 5
13 3 -3 4 -12 1 -19z m-80 -610 c-3 -7 -5 -2 -5 12 0 14 2 19 5 13 2 -7 2 -19
0 -25z"/>
<path d="M4608 7383 c7 -3 16 -2 19 1 4 3 -2 6 -13 5 -11 0 -14 -3 -6 -6z"/>
<path d="M5683 7383 c15 -2 39 -2 55 0 15 2 2 4 -28 4 -30 0 -43 -2 -27 -4z"/>
<path d="M6303 7383 c9 -2 23 -2 30 0 6 3 -1 5 -18 5 -16 0 -22 -2 -12 -5z"/>
<path d="M4568 7373 c7 -3 16 -2 19 1 4 3 -2 6 -13 5 -11 0 -14 -3 -6 -6z"/>
<path d="M5835 7369 c74 -7 391 -12 384 -5 -2 2 -105 5 -229 8 -124 2 -193 1
-155 -3z"/>
<path d="M6243 7373 c9 -2 23 -2 30 0 6 3 -1 5 -18 5 -16 0 -22 -2 -12 -5z"/>
<path d="M4528 7363 c7 -3 16 -2 19 1 4 3 -2 6 -13 5 -11 0 -14 -3 -6 -6z"/>
<path d="M3269 7333 c-13 -16 -12 -17 4 -4 9 7 17 15 17 17 0 8 -8 3 -21 -13z"/>
<path d="M3224 7278 l-19 -23 23 19 c21 18 27 26 19 26 -2 0 -12 -10 -23 -22z"/>
<path d="M4900 7285 c-101 -19 -149 -34 -227 -73 -190 -94 -311 -250 -329
-424 -12 -124 44 -291 129 -381 l38 -42 -36 50 c-68 93 -130 262 -112 307 3 7
6 -2 6 -21 1 -24 5 -32 15 -28 8 3 17 -1 20 -8 4 -12 9 -12 32 0 15 8 32 11
37 8 5 -3 6 29 1 78 -8 103 5 99 16 -5 16 -141 106 -280 251 -389 62 -47 62
-47 14 -5 -182 156 -254 280 -256 436 -2 90 14 135 72 204 47 57 51 72 7 32
l-33 -29 34 37 c19 21 38 35 42 32 10 -6 85 45 82 56 -1 4 6 6 16 3 10 -3 22
1 27 8 5 9 2 10 -10 6 -11 -4 -15 -3 -11 4 4 6 14 8 22 5 8 -4 52 6 97 20 63
21 107 28 201 31 141 6 234 -10 333 -57 60 -28 93 -38 79 -24 -3 4 -43 22 -89
41 -46 19 -70 32 -54 28 48 -10 158 -64 152 -74 -3 -5 14 -21 39 -35 70 -42
159 -120 231 -204 36 -42 70 -76 75 -75 8 3 58 -69 88 -125 22 -41 3 -23 -23
23 -15 25 -29 45 -32 45 -3 0 7 -19 20 -43 14 -24 38 -67 54 -95 16 -29 32
-49 36 -45 4 4 4 -1 0 -11 -5 -13 -4 -17 4 -12 7 4 10 2 6 -7 -3 -8 5 -38 17
-68 12 -30 32 -85 46 -124 21 -63 23 -65 17 -25 -25 188 -106 439 -186 575
-115 195 -334 347 -573 396 -104 22 -283 24 -385 4z m315 -74 c24 -5 -13 -6
-90 -4 -71 3 -134 6 -140 8 -21 7 192 3 230 -4z m-262 -8 c-7 -2 -19 -2 -25 0
-7 3 -2 5 12 5 14 0 19 -2 13 -5z m-50 -10 c-7 -2 -19 -2 -25 0 -7 3 -2 5 12
5 14 0 19 -2 13 -5z m-58 -13 c-11 -5 -27 -9 -35 -9 -9 0 -8 4 5 9 11 5 27 9
35 9 9 0 8 -4 -5 -9z m695 -106 c0 -2 -9 0 -20 6 -11 6 -20 13 -20 16 0 2 9 0
20 -6 11 -6 20 -13 20 -16z m150 -124 c41 -41 86 -91 99 -110 14 -19 -2 -6
-35 30 -54 60 -122 126 -184 180 -23 20 -22 20 10 -1 19 -13 69 -58 110 -99z
m-1161 5 c-12 -20 -27 -54 -34 -78 -9 -28 -14 -34 -14 -19 -1 22 30 92 51 120
19 23 17 12 -3 -23z"/>
<path d="M4290 7280 c-8 -5 -10 -10 -5 -10 6 0 17 5 25 10 8 5 11 10 5 10 -5
0 -17 -5 -25 -10z"/>
<path d="M4150 7215 c-47 -24 -80 -44 -75 -44 6 0 48 20 95 44 47 24 81 44 75
44 -5 0 -48 -20 -95 -44z"/>
<path d="M3140 7198 c-30 -28 -41 -42 -25 -30 28 19 94 83 84 82 -2 -1 -29
-24 -59 -52z"/>
<path d="M7107 7183 c17 -15 46 -37 65 -47 45 -26 25 -8 -42 38 -40 27 -46 29
-23 9z"/>
<path d="M4035 7160 c-3 -6 1 -7 9 -4 18 7 21 14 7 14 -6 0 -13 -4 -16 -10z"/>
<path d="M3233 7140 c-24 -11 -43 -22 -43 -25 0 -7 72 23 85 36 12 12 8 11
-42 -11z"/>
<path d="M3047 7131 c-41 -26 -46 -36 -10 -17 17 9 35 20 38 26 8 13 6 12 -28
-9z"/>
<path d="M3960 7130 c-25 -11 -38 -19 -30 -19 8 0 33 8 55 18 51 25 34 25 -25
1z"/>
<path d="M6920 7113 c8 -3 21 -13 28 -22 11 -14 12 -14 10 4 -2 13 -12 21 -28
22 -15 2 -19 0 -10 -4z"/>
<path d="M3888 7103 c7 -3 16 -2 19 1 4 3 -2 6 -13 5 -11 0 -14 -3 -6 -6z"/>
<path d="M7040 7089 c0 -5 5 -7 10 -4 6 3 10 8 10 11 0 2 -4 4 -10 4 -5 0 -10
-5 -10 -11z"/>
<path d="M3858 7073 c7 -3 16 -2 19 1 4 3 -2 6 -13 5 -11 0 -14 -3 -6 -6z"/>
<path d="M3914 7063 c10 -11 37 -12 30 -2 -3 5 -12 9 -21 9 -9 0 -13 -3 -9 -7z"/>
<path d="M3912 6925 c-17 -37 -14 -45 4 -12 9 16 14 31 11 33 -2 2 -9 -7 -15
-21z"/>
<path d="M4013 6833 c-62 -140 -78 -209 -76 -338 1 -114 22 -210 65 -305 68
-146 77 -177 66 -216 -6 -22 -30 -56 -61 -87 l-52 -50 51 41 c50 41 84 92 84
128 0 9 -22 65 -49 123 -74 162 -93 240 -92 385 1 105 26 219 71 315 17 35 29
66 27 68 -2 2 -18 -27 -34 -64z"/>
<path d="M3051 6854 c0 -11 3 -14 6 -6 3 7 2 16 -1 19 -3 4 -6 -2 -5 -13z"/>
<path d="M3876 6845 c-9 -26 -7 -32 5 -12 6 10 9 21 6 23 -2 3 -7 -2 -11 -11z"/>
<path d="M3032 6805 c-17 -37 -14 -45 4 -12 9 16 14 31 11 33 -2 2 -9 -7 -15
-21z"/>
<path d="M5810 6781 c0 -5 7 -15 17 -22 15 -13 15 -12 4 9 -12 23 -21 28 -21
13z"/>
<path d="M3841 6734 c0 -11 3 -14 6 -6 3 7 2 16 -1 19 -3 4 -6 -2 -5 -13z"/>
<path d="M2995 6729 c-4 -6 -5 -12 -2 -15 2 -3 7 2 10 11 7 17 1 20 -8 4z"/>
<path d="M3831 6694 c0 -11 3 -14 6 -6 3 7 2 16 -1 19 -3 4 -6 -2 -5 -13z"/>
<path d="M2950 6640 c-17 -33 -28 -60 -25 -60 2 0 18 27 35 60 17 33 28 60 25
60 -2 0 -18 -27 -35 -60z"/>
<path d="M3822 6635 c0 -16 2 -22 5 -12 2 9 2 23 0 30 -3 6 -5 -1 -5 -18z"/>
<path d="M3813 6520 c0 -41 2 -58 4 -37 2 20 2 54 0 75 -2 20 -4 3 -4 -38z"/>
<path d="M2892 6537 c-11 -19 -27 -47 -37 -63 l-17 -29 20 25 c24 29 66 100
59 100 -3 0 -14 -15 -25 -33z"/>
<path d="M2796 6383 c-20 -32 -27 -46 -14 -31 26 30 62 88 55 88 -2 0 -21 -26
-41 -57z"/>
<path d="M3823 6390 c0 -25 2 -35 4 -22 2 12 2 32 0 45 -2 12 -4 2 -4 -23z"/>
<path d="M4525 6340 c10 -11 20 -20 23 -20 3 0 -3 9 -13 20 -10 11 -20 20 -23
20 -3 0 3 -9 13 -20z"/>
<path d="M3832 6315 c0 -16 2 -22 5 -12 2 9 2 23 0 30 -3 6 -5 -1 -5 -18z"/>
<path d="M4819 6296 c14 -16 342 -237 421 -283 19 -11 109 -66 200 -122 171
-107 212 -131 195 -114 -5 6 -80 53 -165 105 -244 150 -519 325 -595 381 -38
28 -64 43 -56 33z"/>
<path d="M2274 6271 c3 -4 -6 -63 -19 -130 -36 -177 -39 -216 -21 -301 56
-266 244 -422 555 -460 82 -10 122 -8 64 4 -15 3 -54 10 -85 16 -35 7 -58 17
-58 24 0 12 -52 31 -72 27 -5 0 -8 3 -8 8 0 5 -17 20 -37 32 -20 13 -31 25
-25 27 12 4 9 8 -40 64 -44 48 -33 52 25 9 74 -55 138 -91 242 -134 86 -36
219 -78 240 -76 10 1 -121 45 -158 54 -39 9 -212 90 -265 125 -31 20 -84 61
-117 90 -33 30 -49 42 -36 27 14 -15 20 -27 15 -27 -6 0 -21 14 -33 31 -13 18
-19 29 -12 25 18 -11 13 0 -19 48 -76 112 -120 270 -120 434 0 58 -4 92 -11
92 -5 0 -8 -4 -5 -9z m326 -821 c8 -5 11 -10 5 -10 -5 0 -17 5 -25 10 -8 5
-10 10 -5 10 6 0 17 -5 25 -10z"/>
<path d="M3841 6264 c0 -11 3 -14 6 -6 3 7 2 16 -1 19 -3 4 -6 -2 -5 -13z"/>
<path d="M7990 6218 c16 -35 53 -148 81 -252 51 -185 53 -190 109 -260 154
-194 340 -293 660 -352 17 -3 12 2 -15 15 -22 11 -50 20 -62 20 -12 1 -28 7
-35 15 -8 7 -32 23 -54 34 -22 11 -55 34 -73 51 -18 17 -37 31 -43 31 -5 0 -7
4 -3 9 3 6 -1 13 -9 18 -53 30 -228 195 -296 278 -71 87 -194 264 -188 271 3
2 26 -27 52 -65 26 -39 52 -74 58 -78 7 -3 -13 29 -44 73 -32 43 -62 78 -68
76 -6 -1 -10 3 -8 10 2 12 -79 168 -88 168 -2 0 10 -28 26 -62z"/>
<path d="M6052 6240 c0 -14 2 -19 5 -12 2 6 2 18 0 25 -3 6 -5 1 -5 -13z"/>
<path d="M7950 6173 c0 -171 -37 -296 -124 -417 -58 -81 -173 -189 -236 -221
-28 -14 -50 -28 -50 -30 0 -3 24 7 53 21 33 17 91 65 162 137 61 61 103 102
95 91 -8 -10 -30 -39 -50 -64 -51 -65 -62 -88 -47 -93 7 -2 -3 -11 -20 -21
-18 -9 -33 -22 -33 -29 0 -6 -18 -25 -40 -40 -22 -16 -40 -34 -40 -42 0 -7
-16 -19 -35 -25 -19 -6 -35 -18 -35 -25 0 -9 -23 -16 -77 -21 -52 -5 -70 -10
-53 -14 46 -11 170 9 246 41 178 74 291 202 339 384 21 82 19 137 -11 294 -34
174 -43 191 -44 74z"/>
<path d="M2235 6220 c-9 -16 -13 -30 -11 -30 3 0 12 14 21 30 9 17 13 30 11
30 -3 0 -12 -13 -21 -30z"/>
<path d="M2680 6220 c-12 -16 -19 -30 -16 -30 2 0 14 14 26 30 12 17 19 30 16
30 -2 0 -14 -13 -26 -30z"/>
<path d="M3851 6231 c-1 -19 42 -176 46 -165 1 5 -8 47 -21 94 -14 47 -25 79
-25 71z"/>
<path d="M7561 6195 c17 -24 43 -54 57 -67 14 -13 1 7 -28 45 -61 76 -77 89
-29 22z"/>
<path d="M6061 6194 c0 -11 3 -14 6 -6 3 7 2 16 -1 19 -3 4 -6 -2 -5 -13z"/>
<path d="M2156 6095 c-31 -47 -54 -85 -51 -85 2 0 26 33 53 73 58 86 64 97 59
97 -2 0 -29 -38 -61 -85z"/>
<path d="M2182 6043 c-7 -27 -23 -72 -37 -100 -13 -30 -21 -62 -18 -75 4 -18
2 -20 -6 -8 -8 12 -12 9 -20 -13 -15 -38 -13 -46 4 -23 19 25 19 13 1 -22 -17
-34 -76 -108 -76 -96 0 4 -18 -9 -39 -31 -22 -21 -39 -43 -38 -48 4 -21 -123
-111 -238 -169 -66 -33 -109 -57 -95 -53 50 13 209 96 267 140 67 50 180 166
217 223 25 36 101 292 94 313 -2 6 -9 -11 -16 -38z m-152 -346 c0 -2 -17 -19
-37 -38 l-38 -34 34 38 c33 34 41 42 41 34z"/>
<path d="M3903 6010 c0 -25 2 -35 4 -22 2 12 2 32 0 45 -2 12 -4 2 -4 -23z"/>
<path d="M2022 5908 c-40 -51 -52 -71 -28 -44 43 47 111 136 104 136 -2 0 -36
-42 -76 -92z"/>
<path d="M3845 5903 c-22 -19 -31 -31 -20 -25 19 9 74 63 64 62 -2 -1 -22 -17
-44 -37z"/>
<path d="M8198 5913 c11 -16 30 -37 43 -48 12 -11 5 1 -16 28 -43 52 -57 63
-27 20z"/>
<path d="M4064 5865 c-43 -36 -99 -82 -123 -102 l-44 -36 6 -87 c4 -48 10 -96
13 -106 4 -11 4 -16 -1 -12 -4 4 -14 47 -22 95 -7 48 -17 91 -21 94 -4 4 -63
23 -132 44 -172 50 -169 49 -132 26 81 -52 236 -194 311 -286 13 -16 16 -14
33 21 22 45 91 119 131 140 16 9 25 20 21 26 -4 6 -3 8 3 5 6 -4 28 2 49 12
27 13 44 16 56 10 23 -12 30 -11 22 4 -4 7 -3 9 2 4 5 -5 9 -13 9 -19 0 -15
695 -421 722 -422 12 -1 25 -5 29 -9 5 -4 0 -5 -11 -1 -11 4 -17 4 -14 1 12
-15 292 -188 296 -184 2 3 -19 19 -46 36 -28 17 -51 33 -51 36 0 7 11 1 67
-37 24 -16 42 -33 40 -38 -2 -10 173 -153 180 -147 2 3 -35 35 -82 71 -47 37
-85 69 -85 72 0 3 35 -22 78 -55 233 -176 353 -410 339 -656 -5 -80 -18 -162
-34 -205 -3 -8 -5 -24 -4 -35 1 -12 -7 -31 -18 -44 -11 -12 -23 -36 -26 -52
-4 -19 -35 -58 -78 -102 -42 -42 -55 -59 -32 -40 184 143 265 310 265 542 0
347 -168 592 -599 875 -115 76 -200 129 -481 301 -47 29 -134 83 -195 120 -60
37 -160 99 -222 136 -61 38 -118 69 -126 69 -7 0 -49 -29 -93 -65z m297 -227
l24 -20 -31 17 c-17 10 -41 26 -55 37 l-24 20 31 -17 c17 -10 41 -26 55 -37z
m-341 -12 c0 -2 -8 -10 -17 -17 -16 -13 -17 -12 -4 4 13 16 21 21 21 13z m495
-79 c6 -5 -17 5 -50 23 -33 18 -64 38 -70 43 -5 6 17 -4 50 -22 33 -18 65 -38
70 -44z m-644 36 c13 -16 12 -17 -3 -4 -10 7 -18 15 -18 17 0 8 8 3 21 -13z
m699 -69 c0 -2 -9 0 -20 6 -11 6 -20 13 -20 16 0 2 9 0 20 -6 11 -6 20 -13 20
-16z m153 -83 c31 -18 57 -35 57 -37 0 -5 -41 17 -157 84 -24 13 -43 26 -43
29 0 3 19 -6 43 -19 23 -14 68 -39 100 -57z m142 -86 c11 -9 2 -7 -20 6 -22
12 -44 26 -50 32 -16 15 48 -20 70 -38z m85 -51 c0 -2 -13 2 -30 11 -16 9 -30
18 -30 21 0 2 14 -2 30 -11 17 -9 30 -18 30 -21z m148 -87 c34 -21 62 -41 62
-44 0 -3 -10 1 -22 9 -13 9 -47 30 -75 47 -29 18 -53 35 -53 37 0 6 3 4 88
-49z"/>
<path d="M3750 5850 c-8 -5 -10 -10 -5 -10 6 0 17 5 25 10 8 5 11 10 5 10 -5
0 -17 -5 -25 -10z"/>
<path d="M2180 5809 c-6 -24 -13 -50 -15 -57 -8 -21 -55 -312 -55 -335 0 -47
11 -2 35 144 14 85 32 183 39 219 16 73 13 95 -4 29z"/>
<path d="M8304 5790 c52 -60 148 -146 220 -198 73 -53 53 -30 -26 30 -40 30
-111 93 -157 139 -54 53 -67 64 -37 29z"/>
<path d="M2061 5808 c-12 -19 -11 -20 5 -14 17 6 17 6 -1 -14 -10 -11 -16 -22
-13 -25 3 -3 12 3 22 13 11 13 14 26 9 40 l-8 22 -14 -22z"/>
<path d="M3625 5820 c-27 -7 -27 -8 -5 -8 14 0 39 4 55 8 27 7 27 8 5 8 -14 0
-38 -4 -55 -8z"/>
<path d="M8042 5790 c0 -14 2 -19 5 -12 2 6 2 18 0 25 -3 6 -5 1 -5 -13z"/>
<path d="M1855 5722 c-45 -42 -70 -68 -56 -57 34 27 147 135 141 134 -3 0 -41
-35 -85 -77z"/>
<path d="M8076 5735 c3 -33 9 -76 14 -95 4 -19 14 -78 21 -130 7 -52 14 -89
16 -83 5 14 -33 281 -47 333 -8 28 -8 23 -4 -25z"/>
<path d="M5680 5749 c25 -17 129 -69 137 -69 4 0 -26 18 -67 40 -72 39 -101
51 -70 29z"/>
<path d="M8136 5714 c3 -16 13 -98 22 -182 13 -112 20 -150 29 -141 6 6 41 9
91 7 44 -2 78 0 75 5 -2 4 -19 7 -37 7 -42 0 -51 10 -26 27 14 10 25 11 39 3
26 -14 36 -13 24 3 -10 12 -14 47 -5 47 2 0 16 -8 30 -18 27 -19 62 -34 62
-28 0 2 -30 23 -67 46 -74 48 -168 140 -213 209 -27 41 -30 42 -24 15z"/>
<path d="M2092 5680 c0 -14 2 -19 5 -12 2 6 2 18 0 25 -3 6 -5 1 -5 -13z"/>
<path d="M1940 5670 c0 -5 5 -10 11 -10 5 0 7 5 4 10 -3 6 -8 10 -11 10 -2 0
-4 -4 -4 -10z"/>
<path d="M5837 5669 c7 -7 15 -10 18 -7 3 3 -2 9 -12 12 -14 6 -15 5 -6 -5z"/>
<path d="M5870 5652 c0 -4 -60 -6 -132 -4 -73 2 -130 1 -126 -3 9 -9 128 -65
128 -60 0 3 -13 11 -30 20 -16 9 -30 20 -30 25 0 5 56 8 137 6 127 -4 150 1
81 18 -16 3 -28 3 -28 -2z"/>
<path d="M6695 5602 c-141 -89 -249 -168 -288 -211 -31 -34 -36 -46 -31 -73 5
-29 2 -27 -22 19 -26 50 -31 54 -123 94 -53 22 -121 53 -151 67 l-55 27 85 6
85 6 -97 0 c-54 -1 -98 -3 -98 -7 0 -3 24 -20 53 -37 69 -41 155 -112 246
-201 l73 -72 30 41 c16 23 110 121 208 220 98 98 178 179 177 178 -1 0 -43
-26 -92 -57z"/>
<path d="M6675 5635 c-39 -14 -40 -14 -5 -8 41 7 82 22 60 22 -8 0 -33 -7 -55
-14z"/>
<path d="M1734 5618 l-19 -23 23 19 c21 18 27 26 19 26 -2 0 -12 -10 -23 -22z"/>
<path d="M6608 5613 c7 -3 16 -2 19 1 4 3 -2 6 -13 5 -11 0 -14 -3 -6 -6z"/>
<path d="M2081 5594 c0 -11 3 -14 6 -6 3 7 2 16 -1 19 -3 4 -6 -2 -5 -13z"/>
<path d="M6568 5603 c7 -3 16 -2 19 1 4 3 -2 6 -13 5 -11 0 -14 -3 -6 -6z"/>
<path d="M1657 5566 c-59 -41 -73 -55 -29 -30 33 19 91 63 82 63 -3 0 -27 -15
-53 -33z"/>
<path d="M6518 5593 c6 -2 18 -2 25 0 6 3 1 5 -13 5 -14 0 -19 -2 -12 -5z"/>
<path d="M6478 5583 c7 -3 16 -2 19 1 4 3 -2 6 -13 5 -11 0 -14 -3 -6 -6z"/>
<path d="M5830 5534 c126 -67 294 -182 385 -263 88 -78 212 -171 229 -171 5 0
-11 13 -36 29 -26 16 -97 73 -158 126 -61 53 -162 130 -223 170 -116 76 -255
155 -272 155 -5 0 28 -21 75 -46z"/>
<path d="M6423 5573 c9 -2 23 -2 30 0 6 3 -1 5 -18 5 -16 0 -22 -2 -12 -5z"/>
<path d="M6315 5560 l-40 -7 35 0 c19 -1 49 3 65 7 27 7 27 8 5 7 -14 0 -43
-3 -65 -7z"/>
<path d="M8597 5544 c27 -22 123 -77 123 -71 0 3 -21 18 -47 33 -27 15 -59 34
-73 42 l-25 14 22 -18z"/>
<path d="M6223 5543 c9 -2 25 -2 35 0 9 3 1 5 -18 5 -19 0 -27 -2 -17 -5z"/>
<path d="M2071 5524 c0 -11 3 -14 6 -6 3 7 2 16 -1 19 -3 4 -6 -2 -5 -13z"/>
<path d="M7884 5508 l-29 -33 33 29 c30 28 37 36 29 36 -2 0 -16 -15 -33 -32z"/>
<path d="M1558 5504 c-38 -20 -36 -28 2 -9 17 9 30 18 30 20 0 7 -1 6 -32 -11z"/>
<path d="M2185 5510 c3 -5 8 -10 11 -10 2 0 4 5 4 10 0 6 -5 10 -11 10 -5 0
-7 -4 -4 -10z"/>
<path d="M7485 5484 c-16 -8 -50 -23 -75 -34 -25 -11 -34 -17 -20 -14 31 8
149 62 135 63 -5 0 -23 -7 -40 -15z"/>
<path d="M1445 5444 c-69 -39 -67 -46 3 -9 56 29 81 45 67 44 -5 -1 -37 -16
-70 -35z"/>
<path d="M8450 5436 c0 -2 7 -6 15 -10 8 -3 15 -1 15 4 0 6 -7 10 -15 10 -8 0
-15 -2 -15 -4z"/>
<path d="M8791 5437 c8 -10 152 -68 156 -63 2 2 -27 16 -64 31 -91 37 -99 39
-92 32z"/>
<path d="M7255 5404 c-44 -13 -63 -21 -42 -18 42 6 161 42 137 42 -8 0 -51
-11 -95 -24z"/>
<path d="M1513 5383 c9 -2 25 -2 35 0 9 3 1 5 -18 5 -19 0 -27 -2 -17 -5z"/>
<path d="M1265 5370 c-13 -6 -15 -9 -5 -9 8 0 22 4 30 9 18 12 2 12 -25 0z"/>
<path d="M3058 5373 c7 -3 16 -2 19 1 4 3 -2 6 -13 5 -11 0 -14 -3 -6 -6z"/>
<path d="M7138 5373 c7 -3 16 -2 19 1 4 3 -2 6 -13 5 -11 0 -14 -3 -6 -6z"/>
<path d="M2095 5359 c-5 -8 37 -211 74 -359 16 -63 30 -103 30 -88 1 23 26 84
41 98 3 3 21 29 39 57 18 29 58 75 88 103 56 51 185 130 213 130 8 0 -12 -14
-45 -30 -138 -69 -252 -185 -295 -298 -30 -78 -27 -175 10 -317 17 -65 44
-151 60 -193 17 -41 29 -80 27 -86 -7 -22 -81 179 -124 339 -53 196 -64 216
-185 330 -46 44 -67 68 -48 55 19 -14 69 -58 111 -100 l77 -75 -21 70 c-11 39
-34 135 -52 215 -26 118 -35 146 -50 149 -11 2 -105 -2 -209 -8 -307 -18 -637
-34 -686 -34 l-45 1 35 -10 c164 -45 297 -100 430 -178 98 -57 270 -188 348
-264 34 -33 64 -59 66 -56 3 3 8 1 13 -4 5 -5 3 -6 -4 -2 -22 12 -14 1 19 -30
27 -24 29 -25 13 -4 l-20 25 22 -19 c13 -10 20 -22 18 -26 -3 -5 14 -28 38
-52 23 -24 33 -33 22 -19 l-20 26 26 -23 c15 -13 26 -31 25 -40 0 -9 5 -16 12
-14 8 1 11 -2 8 -7 -3 -5 3 -20 15 -32 11 -13 18 -18 14 -11 -9 17 0 15 16 -5
12 -14 12 -16 0 -9 -9 6 -12 5 -9 -5 3 -8 10 -13 15 -12 5 1 10 -3 10 -10 0
-7 24 -46 54 -89 30 -42 65 -91 77 -110 20 -28 23 -29 17 -8 -4 14 -10 27 -14
30 -3 3 -7 21 -8 40 -1 19 -5 85 -9 145 -16 267 80 469 293 613 132 89 298
147 481 167 35 4 60 10 57 13 -3 4 -207 7 -453 9 -246 1 -484 6 -530 10 -46 5
-85 6 -87 2z m-159 -230 c3 -6 -5 -3 -20 6 -14 10 -26 19 -26 22 0 7 39 -17
46 -28z"/>
<path d="M3135 5355 c28 -7 59 -13 70 -13 11 0 -2 6 -30 13 -27 7 -59 13 -70
13 -11 0 3 -6 30 -13z"/>
<path d="M8105 5363 c-215 -18 -566 -29 -690 -23 -156 7 -383 5 -393 -5 -3 -3
12 -5 34 -5 61 0 222 -28 294 -52 36 -11 109 -43 163 -70 207 -106 291 -194
354 -373 26 -76 28 -89 29 -278 2 -118 -1 -195 -7 -192 -5 4 -9 -4 -9 -16 0
-29 5 -24 74 81 104 159 165 236 282 359 250 263 505 421 854 528 13 4 13 5 0
13 -8 6 -19 10 -25 10 -5 0 -4 -4 3 -8 21 -14 -845 20 -882 34 -9 3 -16 4 -16
2 0 -14 -102 -498 -119 -565 -38 -149 -150 -454 -151 -410 0 10 6 28 14 40 8
12 34 90 57 172 37 127 44 164 44 240 0 85 -2 96 -39 169 -43 87 -128 182
-196 216 -41 21 -54 35 -22 23 41 -15 135 -90 171 -137 52 -69 106 -174 103
-205 -1 -13 1 -22 4 -18 7 7 17 46 49 192 13 61 31 143 40 184 9 41 15 79 13
85 -2 6 -16 10 -33 9z m-396 -85 c13 -5 22 -11 19 -13 -3 -3 -25 4 -49 15 -41
19 -22 18 30 -2z"/>
<path d="M8980 5360 c8 -5 22 -9 30 -9 10 0 8 3 -5 9 -27 12 -43 12 -25 0z"/>
<path d="M3835 5189 c1 -11 6 -24 12 -27 5 -4 22 -68 37 -142 46 -223 86 -380
123 -480 85 -227 212 -448 322 -559 31 -32 37 -37 14 -12 -58 64 -145 197
-194 299 -23 48 -46 95 -51 106 -7 13 -6 17 3 14 8 -3 16 -15 19 -29 3 -13 9
-19 12 -13 4 6 0 23 -8 39 -8 16 -12 35 -9 43 3 8 -3 21 -12 29 -10 8 -12 11
-4 7 10 -5 13 -3 8 7 -3 8 -33 77 -66 153 -34 76 -60 141 -58 143 2 1 25 -45
52 -104 117 -264 270 -494 405 -608 19 -16 -2 10 -48 59 -83 89 -163 199 -239
331 -84 145 -211 456 -284 693 -21 70 -37 94 -34 51z m124 -354 c0 -5 -4 -3
-9 5 -5 8 -9 22 -9 30 0 16 17 -16 18 -35z m21 -50 c0 -5 -5 -3 -10 5 -5 8
-10 20 -10 25 0 6 5 3 10 -5 5 -8 10 -19 10 -25z m115 -375 c3 -5 1 -10 -4
-10 -6 0 -11 5 -11 10 0 6 2 10 4 10 3 0 8 -4 11 -10z"/>
<path d="M3834 4955 c0 -93 2 -133 3 -88 2 45 2 122 0 170 -1 48 -3 12 -3 -82z"/>
<path d="M6489 5079 c18 -11 35 -18 38 -15 5 5 -50 36 -64 36 -4 0 7 -9 26
-21z"/>
<path d="M6263 5055 c-56 -24 -59 -44 -33 -226 37 -265 17 -426 -76 -611 -113
-224 -329 -400 -645 -528 -166 -68 -256 -90 -376 -92 l-98 -2 80 -5 c56 -4 79
-10 77 -18 -3 -18 13 -16 28 2 7 8 19 15 27 15 14 0 -25 -64 -71 -117 -11 -13
-15 -23 -9 -23 6 0 22 15 36 33 24 31 87 75 87 61 0 -4 -21 -29 -46 -56 -57
-61 -91 -133 -104 -223 -5 -39 -10 -185 -10 -325 0 -140 -5 -286 -10 -324 -6
-42 -7 -73 -1 -79 5 -5 13 20 20 65 30 187 132 542 200 691 40 90 103 177 185
255 53 51 82 70 153 99 186 75 409 194 398 213 -3 5 0 12 6 16 8 5 9 3 4 -6
-5 -8 -3 -11 6 -8 8 3 13 10 12 16 -1 5 5 16 15 24 15 12 16 11 3 -4 -7 -10
-9 -18 -4 -18 16 0 174 140 169 149 -3 4 9 21 27 37 31 29 32 29 8 2 -39 -45
-9 -32 34 14 22 23 29 34 15 23 l-25 -20 19 22 c10 13 22 21 26 18 3 -2 35 5
69 15 35 11 74 20 89 20 60 0 9 9 -83 14 -55 4 -118 11 -140 16 -22 5 -66 10
-98 10 -42 0 -57 4 -55 12 4 12 32 13 143 3 l50 -4 -55 13 c-30 8 -50 14 -45
15 6 0 28 15 49 33 38 31 72 46 60 27 -3 -5 2 -9 10 -9 9 0 16 7 16 15 0 8 4
15 9 15 18 0 12 300 -9 435 -31 195 -33 235 -4 100 20 -97 26 -163 32 -340 7
-205 9 -222 29 -251 12 -17 35 -39 50 -49 22 -15 19 -9 -14 27 -25 28 -44 59
-47 80 -3 18 -7 119 -10 223 -3 130 -10 224 -24 297 -11 58 -17 118 -15 133 6
29 60 75 89 75 16 0 17 2 4 10 -23 15 -190 11 -227 -5z m2 -795 c-10 -11 -24
-20 -32 -20 -8 0 -2 10 14 24 33 28 45 25 18 -4z m-16 -263 c-2 -2 -29 -22
-59 -46 l-55 -43 55 50 c30 28 57 48 59 46 2 -2 2 -5 0 -7z m-879 -442 c-25
-13 -49 -24 -55 -24 -5 0 10 11 35 24 25 13 50 24 55 24 6 0 -10 -11 -35 -24z"/>
<path d="M7638 4973 c-98 -131 -208 -283 -208 -288 0 -4 6 -3 13 1 7 4 9 3 4
-2 -5 -5 -14 -9 -20 -9 -5 0 -12 -6 -15 -14 -3 -9 0 -11 9 -5 12 7 12 5 0 -9
-15 -18 -26 -23 -16 -7 3 6 4 10 1 10 -5 0 -69 -88 -189 -260 -33 -47 -75
-106 -94 -132 -19 -27 -32 -48 -29 -48 3 0 71 92 151 205 80 113 148 205 151
205 3 0 -3 -12 -14 -27 -10 -16 -61 -89 -112 -163 -132 -190 -229 -326 -333
-465 -50 -66 -102 -136 -115 -155 -14 -19 -30 -39 -36 -45 -6 -5 -23 -26 -38
-46 -14 -19 -42 -46 -61 -59 l-34 -23 28 -28 c31 -30 111 -64 133 -56 8 3 44
63 81 134 157 299 343 589 565 878 188 245 237 312 244 329 11 31 16 13 6 -27
-4 -21 -23 -54 -42 -75 -112 -124 -432 -578 -584 -829 -60 -99 -224 -413 -224
-429 0 -4 8 0 18 8 24 21 129 48 186 48 45 0 48 1 42 23 -3 12 -8 33 -11 47
-5 22 -5 23 4 4 9 -20 51 -59 87 -80 15 -9 3 -12 -65 -18 -103 -9 -219 -38
-271 -67 -42 -24 -294 -289 -527 -554 -77 -88 -217 -245 -312 -348 -94 -104
-168 -193 -165 -199 4 -6 2 -8 -3 -5 -6 4 -35 -21 -64 -55 -50 -58 -43 -53
101 65 85 70 155 133 155 140 1 6 6 11 12 10 15 -3 104 77 98 87 -3 4 3 14 13
21 15 13 16 12 3 -3 -31 -40 9 -13 79 54 41 39 64 62 50 52 l-25 -19 18 22
c11 12 24 19 31 17 7 -3 19 3 27 12 12 15 12 17 0 9 -10 -5 -12 -4 -7 4 4 6
11 9 15 6 12 -7 43 30 34 39 -5 4 -1 6 7 4 8 -2 14 3 12 10 -1 8 1 11 6 8 12
-7 94 63 86 75 -3 5 -1 8 4 7 16 -5 93 62 86 74 -4 6 -3 8 3 5 6 -4 19 3 29
16 19 21 19 21 -1 7 -18 -14 -19 -14 -6 2 7 10 18 15 23 12 6 -4 47 29 92 73
205 200 420 383 479 408 l30 12 -45 27 c-74 43 -82 56 -74 128 10 97 130 327
273 523 194 264 309 398 400 466 l33 24 -20 35 c-26 45 -80 158 -80 168 0 4
-10 24 -23 45 l-23 37 -36 -47z"/>
<path d="M2546 5003 c-4 -4 -25 -46 -47 -92 -22 -47 -51 -99 -64 -117 -14 -18
-25 -38 -25 -44 0 -6 43 -52 96 -103 135 -128 360 -425 464 -610 18 -32 36
-54 42 -50 7 3 8 1 4 -5 -8 -13 44 -123 56 -116 4 3 5 -1 2 -9 -3 -8 2 -17 10
-20 9 -4 16 -12 16 -19 0 -9 -3 -9 -11 2 -9 12 -10 12 -5 -3 3 -10 6 -21 6
-23 0 -3 5 -2 11 2 8 4 9 -1 4 -16 -5 -16 -4 -20 4 -15 8 5 10 -2 6 -22 -5
-20 -4 -24 3 -14 16 22 27 -71 13 -98 -16 -30 -6 -40 32 -35 20 3 63 -6 115
-24 45 -15 82 -27 82 -25 0 11 -167 335 -211 409 -118 199 -333 512 -502 727
-60 77 -114 151 -120 165 -6 15 -15 29 -18 32 -4 3 -1 19 6 35 l13 30 1 -28
c1 -39 11 -56 120 -195 332 -427 548 -760 691 -1066 55 -118 51 -115 136 -80
17 7 55 15 85 19 l54 5 -40 -13 c-35 -12 -143 -63 -154 -73 -2 -2 49 -59 115
-127 66 -67 133 -139 148 -159 26 -34 58 -55 39 -25 -16 25 -33 83 -32 112 0
25 4 19 23 -32 47 -126 138 -247 432 -573 82 -91 183 -206 224 -255 41 -50 99
-117 130 -149 77 -83 46 -66 -47 24 -42 41 -72 69 -68 61 5 -10 4 -12 -4 -7
-6 4 -9 11 -6 16 3 4 -3 14 -12 21 -18 15 -198 219 -431 488 -79 92 -234 261
-345 376 -181 189 -206 212 -258 232 -57 22 -274 57 -290 47 -5 -3 -9 -1 -9 5
0 5 6 12 13 14 7 4 8 6 1 6 -6 1 -17 -5 -23 -13 -10 -12 -8 -17 11 -27 45 -23
176 -136 422 -364 236 -219 279 -256 261 -224 -5 8 4 3 18 -10 33 -30 36 -42
5 -15 -13 10 -3 -3 22 -29 24 -26 51 -46 60 -44 8 1 14 -3 13 -9 -1 -7 39 -49
89 -95 51 -46 89 -78 84 -71 -15 24 11 11 40 -20 l29 -33 -30 25 -30 25 29
-32 c16 -18 31 -31 33 -29 2 2 21 -15 43 -36 24 -24 44 -37 51 -32 7 4 9 3 6
-3 -8 -13 129 -129 149 -127 7 1 12 -3 11 -8 -1 -6 50 -52 113 -104 154 -126
168 -126 53 2 -121 135 -252 308 -408 539 -87 129 -161 233 -164 230 -4 -2 -7
4 -7 13 0 22 -126 211 -167 251 -20 20 -33 27 -38 20 -5 -8 -8 -8 -13 0 -4 6
-5 15 -1 20 3 5 1 12 -4 15 -5 3 -12 -23 -16 -59 -3 -36 -10 -65 -14 -65 -14
0 -51 47 -44 55 5 4 3 5 -3 2 -13 -7 -24 14 -23 41 0 14 2 13 9 -3 8 -18 9
-18 9 5 1 32 -13 55 -28 46 -6 -4 -11 -3 -11 3 0 5 -10 13 -21 16 -17 6 -19 9
-8 16 9 6 18 3 25 -6 14 -19 35 -20 28 -1 -3 8 -37 22 -75 31 -65 16 -92 35
-51 35 11 0 27 9 37 20 9 10 34 25 54 31 20 6 44 16 54 21 18 9 18 10 1 29
-10 11 -25 17 -34 14 -36 -11 -251 257 -566 705 -72 102 -147 209 -168 238
-21 28 -36 52 -33 52 6 0 15 -12 221 -300 261 -366 527 -702 542 -687 3 2 -10
20 -29 38 -92 94 -322 394 -558 729 -124 175 -173 239 -180 235 -4 -3 -6 3 -5
12 0 10 -4 18 -11 18 -6 0 -15 4 -20 9 -5 5 -3 6 5 2 6 -4 12 -3 12 2 0 15
-26 33 -35 24 -5 -4 -5 -2 -2 4 3 6 -11 34 -31 62 -179 250 -171 240 -186 225z
m492 -1058 c-3 -3 -9 2 -12 12 -6 14 -5 15 5 6 7 -7 10 -15 7 -18z m32 -59 c0
-12 -5 -7 -19 24 -11 24 -11 24 3 6 9 -11 16 -24 16 -30z m200 -511 c13 -14
21 -25 18 -25 -2 0 -15 11 -28 25 -13 14 -21 25 -18 25 2 0 15 -11 28 -25z
m400 -372 c0 -7 -195 172 -290 266 -41 40 7 -2 108 -94 100 -92 182 -169 182
-172z m323 -15 c63 -98 74 -117 60 -103 -9 9 -97 139 -117 173 -4 6 -5 12 -1
12 3 0 29 -37 58 -82z m141 -217 c18 -15 22 -36 6 -26 -13 8 -70 107 -69 120
0 6 11 -11 24 -36 13 -25 31 -51 39 -58z m-164 -37 c14 -15 -8 1 -47 36 -40
35 -73 66 -73 68 0 7 94 -74 120 -104z m160 -139 c13 -14 21 -25 18 -25 -2 0
-15 11 -28 25 -13 14 -21 25 -18 25 2 0 15 -11 28 -25z m106 -87 l29 -33 -32
29 c-31 28 -38 36 -30 36 2 0 16 -15 33 -32z m78 -67 c-3 -3 -15 6 -27 18
l-22 24 27 -19 c14 -10 24 -21 22 -23z"/>
<path d="M3861 4940 c-4 -10 -9 -111 -16 -287 -4 -123 -3 -183 4 -188 6 -3 11
-14 10 -23 0 -14 -2 -13 -8 3 -7 18 -8 18 -13 -5 -2 -14 -4 -47 -3 -73 0 -38
-2 -45 -11 -33 -8 12 -16 -21 -33 -147 -23 -169 -62 -398 -85 -505 -7 -34 -11
-61 -9 -58 3 3 20 40 38 83 18 43 55 128 84 188 74 162 111 324 111 494 0 97
-60 577 -69 551z m36 -544 c-6 -17 -34 -19 -40 -3 -4 10 2 15 19 15 14 0 23
-5 21 -12z m0 -178 c-3 -7 -5 -2 -5 12 0 14 2 19 5 13 2 -7 2 -19 0 -25z m-18
-105 c-11 -57 -23 -73 -14 -18 8 47 13 65 18 65 3 0 0 -21 -4 -47z m-56 -168
c-3 -9 -8 -14 -10 -11 -3 3 -2 9 2 15 9 16 15 13 8 -4z m-22 -52 c-12 -20 -14
-14 -5 12 4 9 9 14 11 11 3 -2 0 -13 -6 -23z"/>
<path d="M5480 4905 c11 -16 39 -52 61 -80 59 -75 107 -179 129 -280 13 -63
19 -79 19 -53 2 95 -90 292 -184 393 -26 28 -37 37 -25 20z"/>
<path d="M3812 4624 c-7 -87 -15 -188 -17 -224 l-4 -65 9 60 c13 89 33 360 28
376 -2 7 -10 -59 -16 -147z"/>
<path d="M5693 4400 c0 -25 2 -35 4 -22 2 12 2 32 0 45 -2 12 -4 2 -4 -23z"/>
<path d="M3775 4265 c-3 -31 -5 -59 -2 -61 3 -3 8 20 12 51 3 31 5 59 2 61 -3
3 -8 -20 -12 -51z"/>
<path d="M5677 4273 c-21 -141 -148 -308 -289 -378 -40 -20 -62 -33 -48 -29
88 23 204 117 268 216 45 71 85 177 80 217 -2 17 -6 9 -11 -26z"/>
<path d="M6378 4203 c6 -2 18 -2 25 0 6 3 1 5 -13 5 -14 0 -19 -2 -12 -5z"/>
<path d="M7073 4188 c-46 -60 -66 -91 -56 -84 13 7 77 96 70 96 -3 0 -9 -6
-14 -12z"/>
<path d="M3762 4160 c0 -19 2 -27 5 -17 2 9 2 25 0 35 -3 9 -5 1 -5 -18z"/>
<path d="M3752 4090 c0 -19 2 -27 5 -17 2 9 2 25 0 35 -3 9 -5 1 -5 -18z"/>
<path d="M6944 4013 c-81 -106 -86 -113 -81 -113 4 0 45 53 140 178 5 6 7 12
4 12 -2 0 -31 -35 -63 -77z"/>
<path d="M3736 3989 c-4 -33 -5 -63 -3 -66 3 -2 8 23 12 57 4 34 5 63 2 66 -2
3 -7 -23 -11 -57z"/>
<path d="M4480 4026 c0 -2 8 -10 18 -17 15 -13 16 -12 3 4 -13 16 -21 21 -21
13z"/>
<path d="M4545 3976 c34 -30 183 -106 205 -106 8 0 -15 13 -52 29 -36 16 -86
42 -110 58 -62 41 -78 48 -43 19z"/>
<path d="M3722 3890 c0 -14 2 -19 5 -12 2 6 2 18 0 25 -3 6 -5 1 -5 -13z"/>
<path d="M6824 3853 c-54 -73 -196 -211 -234 -228 -22 -10 -38 -22 -37 -28 1
-6 23 -18 48 -27 25 -8 61 -25 79 -37 l35 -22 -33 -14 c-18 -7 -29 -17 -25
-21 4 -4 1 -11 -7 -16 -12 -7 -12 -12 -3 -21 17 -17 83 3 109 32 l19 22 -28
-7 c-20 -5 -27 -3 -22 5 4 6 23 9 41 7 26 -3 31 -1 22 7 -19 17 -149 74 -186
81 -40 8 -41 18 -1 35 36 14 178 154 227 223 40 55 36 62 -4 9z m-119 -373
c-3 -5 -11 -10 -16 -10 -6 0 -7 5 -4 10 3 6 11 10 16 10 6 0 7 -4 4 -10z"/>
<path d="M4805 3855 c22 -8 49 -13 60 -13 11 0 -2 6 -30 14 -63 17 -84 16 -30
-1z"/>
<path d="M3711 3834 c0 -11 3 -14 6 -6 3 7 2 16 -1 19 -3 4 -6 -2 -5 -13z"/>
<path d="M5258 3843 c7 -3 16 -2 19 1 4 3 -2 6 -13 5 -11 0 -14 -3 -6 -6z"/>
<path d="M4903 3833 c9 -2 23 -2 30 0 6 3 -1 5 -18 5 -16 0 -22 -2 -12 -5z"/>
<path d="M5208 3833 c7 -3 16 -2 19 1 4 3 -2 6 -13 5 -11 0 -14 -3 -6 -6z"/>
<path d="M5023 3823 c32 -2 81 -2 110 0 29 2 3 3 -58 3 -60 0 -84 -1 -52 -3z"/>
<path d="M3968 3784 c-99 -32 -187 -97 -245 -182 -42 -62 -56 -101 -30 -86 6
4 9 4 5 0 -3 -4 -9 -7 -12 -7 -12 2 -46 -39 -46 -55 0 -10 25 7 68 47 127 120
265 183 423 195 180 13 406 -55 572 -172 52 -38 66 -43 46 -16 -7 9 -1 6 14
-7 30 -27 37 -41 10 -20 -10 7 1 -7 24 -32 24 -24 58 -74 78 -109 19 -36 35
-61 35 -57 0 17 -52 108 -82 144 l-32 38 33 -30 c18 -16 50 -66 72 -111 38
-78 53 -125 24 -74 -20 36 -18 24 10 -50 13 -36 24 -58 25 -50 1 9 5 6 10 -8
5 -12 6 -30 3 -39 -5 -12 -3 -14 7 -8 10 6 12 4 7 -9 -4 -10 13 -83 37 -164
24 -81 49 -178 56 -217 23 -128 30 -125 24 10 -3 72 -9 236 -14 365 -6 165
-13 250 -24 285 -16 52 -62 132 -100 174 -110 123 -560 272 -820 271 -79 -1
-117 -6 -178 -26z m189 -70 c-3 -3 -12 -4 -19 -1 -8 3 -5 6 6 6 11 1 17 -2 13
-5z m-69 -11 c-10 -2 -26 -2 -35 0 -10 3 -2 5 17 5 19 0 27 -2 18 -5z m215 0
c-7 -2 -21 -2 -30 0 -10 3 -4 5 12 5 17 0 24 -2 18 -5z m-276 -9 c-3 -3 -12
-4 -19 -1 -8 3 -5 6 6 6 11 1 17 -2 13 -5z m326 -1 c-7 -2 -19 -2 -25 0 -7 3
-2 5 12 5 14 0 19 -2 13 -5z m72 -13 c25 -11 -1 -11 -35 0 -20 6 -21 8 -5 8
11 0 29 -3 40 -8z m155 -60 c33 -17 60 -33 60 -35 0 -5 -119 52 -129 61 -13
12 16 1 69 -26z m110 -66 c0 -2 -9 0 -20 6 -11 6 -20 13 -20 16 0 2 9 0 20 -6
11 -6 20 -13 20 -16z m347 -626 c-3 -8 -6 -5 -6 6 -1 11 2 17 5 13 3 -3 4 -12
1 -19z m17 -44 c3 -8 2 -12 -4 -9 -6 3 -10 10 -10 16 0 14 7 11 14 -7z"/>
<path d="M3702 3780 c0 -14 2 -19 5 -12 2 6 2 18 0 25 -3 6 -5 1 -5 -13z"/>
<path d="M3692 3730 c0 -14 2 -19 5 -12 2 6 2 18 0 25 -3 6 -5 1 -5 -13z"/>
<path d="M3671 3633 c-23 -134 -23 -132 -7 -90 15 37 33 157 24 157 -3 0 -10
-30 -17 -67z"/>
<path d="M3121 3674 c0 -11 3 -14 6 -6 3 7 2 16 -1 19 -3 4 -6 -2 -5 -13z"/>
<path d="M3088 3618 c-15 -15 -23 -28 -19 -28 9 0 56 49 50 53 -2 1 -16 -10
-31 -25z"/>
<path d="M5111 3493 c7 -12 15 -20 18 -17 3 2 -3 12 -13 22 -17 16 -18 16 -5
-5z"/>
<path d="M6618 3483 c7 -3 16 -2 19 1 4 3 -2 6 -13 5 -11 0 -14 -3 -6 -6z"/>
<path d="M5140 3445 c0 -8 4 -15 10 -15 5 0 7 7 4 15 -4 8 -8 15 -10 15 -2 0
-4 -7 -4 -15z"/>
<path d="M6474 3364 c-76 -104 -165 -244 -160 -253 7 -10 -58 -116 -71 -116
-5 0 -35 -36 -65 -80 -150 -219 -204 -294 -280 -387 -127 -155 -222 -281 -207
-276 7 2 17 13 23 23 21 38 242 311 316 390 144 155 375 428 419 494 41 63 90
159 106 211 7 22 6 23 -8 12 -14 -12 -16 -9 -19 18 l-3 32 -51 -68z m-319
-521 c-29 -46 -97 -133 -109 -140 -6 -4 -4 2 5 13 8 10 37 49 63 87 46 65 76
94 41 40z"/>
<path d="M6629 3425 c-1 -3 -2 -8 -3 -12 -1 -5 -8 -19 -15 -32 -9 -16 -16 -20
-20 -12 -9 14 -31 -29 -31 -60 0 -11 -8 -32 -17 -47 -10 -16 6 -5 40 28 31 30
55 60 52 67 -2 6 6 24 18 39 12 16 16 25 9 20 -6 -4 -12 -2 -12 3 0 11 -19 16
-21 6z m-48 -108 c-10 -9 -11 -8 -5 6 3 10 9 15 12 12 3 -3 0 -11 -7 -18z"/>
<path d="M6204 3139 c-128 -146 -212 -248 -181 -220 34 31 36 13 2 -19 -14
-13 -25 -20 -25 -16 0 13 -28 -14 -62 -58 -26 -35 -24 -34 15 9 26 28 46 46
47 41 0 -14 -81 -106 -90 -101 -5 3 -35 -27 -67 -67 -32 -40 -88 -110 -125
-154 -66 -79 -81 -103 -55 -88 8 5 8 2 -2 -9 -16 -20 -25 -22 -16 -4 4 6 -3 1
-14 -12 -12 -12 -19 -27 -16 -31 3 -5 0 -12 -6 -16 -8 -4 -9 -3 -5 4 18 30 -4
7 -39 -40 -22 -29 -42 -55 -45 -58 -3 -3 -16 -18 -28 -34 -17 -22 -19 -32 -11
-42 23 -28 55 -15 103 40 128 151 456 576 456 592 -1 5 -10 -2 -20 -15 -26
-31 -26 -17 0 16 11 14 20 20 20 13 0 -10 3 -10 15 0 18 15 20 35 3 24 -7 -4
-8 -3 -4 5 4 6 11 9 15 6 5 -2 56 66 113 153 150 225 151 227 22 81z m-13 -47
c-11 -16 -28 -35 -38 -43 -10 -8 -3 5 16 29 37 47 53 58 22 14z m-101 -112
c-18 -23 -35 -38 -38 -35 -5 5 56 75 66 75 2 0 -11 -18 -28 -40z m-252 -312
c-42 -51 -96 -115 -122 -143 -26 -27 6 17 70 98 64 81 119 145 122 143 2 -3
-29 -47 -70 -98z"/>
<path d="M3936 3220 c6 -8 28 -41 48 -72 21 -32 42 -56 46 -53 5 3 12 0 16 -6
4 -8 3 -9 -4 -5 -19 12 -14 -3 16 -48 83 -121 225 -321 273 -383 169 -219 251
-323 256 -323 3 0 1 6 -4 13 -77 100 -103 137 -99 137 2 0 28 -30 57 -67 79
-103 76 -98 62 -89 -23 13 -13 -3 42 -71 30 -38 55 -71 55 -75 0 -8 -35 -11
-140 -10 -43 0 -58 -3 -45 -8 32 -13 145 -11 200 4 68 18 125 48 155 83 l25
28 -30 -26 c-62 -55 -68 -54 -117 4 -24 28 -59 72 -79 97 -32 41 -228 282
-424 521 -157 192 -226 269 -236 264 -5 -3 -6 0 -4 7 3 8 -14 31 -37 53 -23
22 -37 33 -32 25z m154 -189 c0 -9 6 -23 13 -30 10 -11 9 -13 -1 -7 -6 4 -19
20 -27 36 -14 26 -14 29 0 24 8 -4 15 -14 15 -23z m187 -211 c120 -147 187
-234 175 -226 -7 4 -37 37 -66 74 -96 118 -123 146 -129 135 -6 -9 66 -111
176 -252 27 -33 46 -61 43 -61 -17 0 -290 369 -329 443 -48 93 -14 63 130
-113z m221 -270 c17 -27 10 -25 -19 6 -13 14 -17 23 -9 19 9 -3 21 -14 28 -25z
m103 -132 c19 -35 1 -17 -45 45 -47 61 -47 62 -6 17 22 -25 45 -53 51 -62z
m30 -45 c13 -16 12 -17 -3 -4 -17 13 -22 21 -14 21 2 0 10 -8 17 -17z"/>
<path d="M4152 2942 c11 -27 94 -139 96 -132 2 6 -18 39 -44 75 -43 59 -61 79
-52 57z"/>
<path d="M6271 3060 c-30 -48 -40 -74 -22 -54 14 15 63 104 58 104 -3 0 -19
-23 -36 -50z"/>
<path d="M4964 2677 c3 -10 7 -53 8 -95 l2 -77 3 68 4 68 36 -68 c51 -98 62
-113 86 -122 16 -6 28 -4 41 8 18 15 18 15 12 -9 -6 -19 -5 -21 3 -10 6 8 11
22 11 31 0 9 9 27 20 40 20 24 20 24 0 -29 -11 -30 -27 -61 -35 -69 -12 -12
-15 -48 -15 -189 0 -109 4 -174 10 -174 6 0 10 4 10 9 0 5 26 15 58 21 95 18
102 20 102 28 0 4 -16 16 -36 27 -64 34 -126 150 -123 229 1 23 4 17 13 -25 7
-30 23 -75 37 -100 43 -79 158 -134 236 -114 l28 7 -30 12 c-17 7 -43 30 -58
50 -29 38 -23 50 8 16 35 -39 101 -55 229 -54 66 0 121 4 123 10 2 5 -51 9
-130 9 -72 0 -145 4 -160 8 -16 4 -48 26 -72 48 -24 22 -47 40 -52 40 -4 0 -7
7 -5 16 2 8 -1 12 -7 8 -7 -4 -8 0 -4 11 4 11 2 15 -4 11 -6 -4 -11 -1 -10 6
0 6 -1 21 -2 32 -1 17 -3 18 -11 5 -7 -11 -8 -5 -3 19 4 21 2 32 -4 28 -5 -4
-8 7 -5 26 3 26 1 29 -8 17 -9 -13 -10 -12 -6 5 3 11 2 61 -2 110 l-7 90 -26
-55 c-33 -69 -85 -140 -102 -140 -21 0 -63 50 -101 123 -39 75 -73 126 -62 94z"/>
<path d="M4987 2508 c-4 -41 -11 -86 -16 -99 -7 -18 -9 -11 -6 31 l4 55 -9
-54 c-6 -29 -22 -77 -36 -105 -14 -28 -21 -46 -15 -41 6 6 20 28 30 50 11 22
20 33 21 25 0 -22 -50 -111 -90 -159 -28 -33 -47 -44 -95 -58 -91 -25 -88 -33
11 -33 73 0 98 4 134 23 56 28 105 92 126 164 15 53 15 59 -7 150 -33 134 -44
145 -52 51z"/>
<path d="M5070 2242 c0 -12 4 -22 9 -22 10 0 9 26 -2 36 -4 4 -7 -2 -7 -14z"/>
<path d="M4490 2147 c74 -64 139 -115 143 -111 2 2 10 -4 18 -13 13 -17 13
-17 -6 -3 -20 14 -20 14 -1 -7 10 -13 23 -20 29 -16 5 3 7 2 4 -4 -3 -5 12
-27 33 -48 22 -22 40 -35 40 -31 0 5 7 3 15 -4 8 -7 15 -17 15 -22 0 -6 -8 -4
-17 3 -9 8 2 -10 26 -40 23 -30 54 -76 67 -103 13 -26 27 -48 29 -48 9 0 -35
82 -72 135 l-35 50 36 -39 c62 -67 165 -284 241 -506 l43 -125 -5 100 c-12
278 -106 577 -215 687 -26 27 -44 48 -40 48 18 -1 88 -48 97 -65 5 -11 20 -34
32 -51 12 -17 27 -42 33 -55 5 -13 14 -31 19 -39 5 -8 22 -50 38 -93 15 -43
29 -73 31 -67 2 6 -5 30 -16 53 -11 23 -22 53 -26 67 l-7 25 15 -25 15 -25 2
35 c2 24 4 16 9 -25 5 -47 7 -29 11 88 l4 147 -57 0 c-32 0 -91 11 -135 24
-43 13 -143 39 -223 56 -80 18 -156 37 -170 42 -13 5 -22 7 -20 5z m587 -214
c-3 -10 -5 -2 -5 17 0 19 2 27 5 18 2 -10 2 -26 0 -35z m-352 17 c10 -11 16
-20 13 -20 -3 0 -13 9 -23 20 -10 11 -16 20 -13 20 3 0 13 -9 23 -20z m335
-46 c0 -2 -9 -4 -21 -4 -11 0 -18 4 -14 10 5 8 35 3 35 -6z"/>
<path d="M5610 2129 c-41 -10 -140 -30 -220 -44 -80 -13 -169 -31 -197 -40
l-53 -16 0 -182 c0 -100 -5 -303 -11 -452 -6 -148 -11 -280 -11 -292 0 -13 -5
-20 -10 -17 -6 4 -9 1 -7 -5 11 -33 25 -5 54 109 70 281 160 495 273 654 57
80 196 227 262 278 43 33 28 35 -80 7z"/>
<path d="M4911 1650 c14 -31 19 -36 19 -24 0 6 -7 19 -16 30 -14 18 -14 18 -3
-6z"/>
<path d="M4940 1585 c0 -5 5 -17 10 -25 5 -8 10 -10 10 -5 0 6 -5 17 -10 25
-5 8 -10 11 -10 5z"/>
<path d="M4993 1458 c19 -50 82 -254 93 -303 12 -53 14 -55 10 -15 -5 47 -93
330 -102 330 -4 0 -4 -6 -1 -12z"/>
</g>
</svg>
